<svg width="72" height="72" viewBox="0 0 72 72" fill="none" xmlns="http://www.w3.org/2000/svg">
<path d="M10.5829 64.1942L4.9275 0.7605H67.0725L61.4115 64.1846L35.9623 71.2401L10.5829 64.1942Z" fill="#1572B6"/>
<path d="M36.0006 65.8474L56.565 60.1459L61.4031 5.94675H36.0006V65.8474Z" fill="#33A9DC"/>
<path d="M36.0006 28.9288H46.2954L47.0064 20.9621H36.0006V13.1822H55.5092L55.3224 15.2696L53.4099 36.7088H36.0006V28.9288Z" fill="white"/>
<path d="M36.0467 49.1338L36.0124 49.1439L27.3482 46.8045L26.7941 40.5996H18.9855L20.0751 52.8154L36.0112 57.2383L36.0467 57.2282V49.1338Z" fill="#EBEBEB"/>
<path d="M45.6339 36.3797L44.6968 46.7983L36.0197 49.1406V57.2349L51.9688 52.8148L52.0858 51.5002L53.4392 36.3797H45.6339Z" fill="white"/>
<path d="M36.027 13.1822V20.9621H17.235L17.0792 19.2139L16.7248 15.2696L16.5386 13.1822H36.027ZM36.0006 28.9299V36.7099H27.4455L27.2897 34.9616L26.9347 31.0174L26.7491 28.9299H36.0006Z" fill="#EBEBEB"/>
</svg>
