<svg width="81" height="81" viewBox="0 0 81 81" fill="none" xmlns="http://www.w3.org/2000/svg">
<path d="M62.0156 0H18.9844C8.49959 0 0 8.49959 0 18.9844V62.0156C0 72.5004 8.49959 81 18.9844 81H62.0156C72.5004 81 81 72.5004 81 62.0156V18.9844C81 8.49959 72.5004 0 62.0156 0Z" fill="url(#paint0_radial_2_62)"/>
<path d="M62.0156 0H18.9844C8.49959 0 0 8.49959 0 18.9844V62.0156C0 72.5004 8.49959 81 18.9844 81H62.0156C72.5004 81 81 72.5004 81 62.0156V18.9844C81 8.49959 72.5004 0 62.0156 0Z" fill="url(#paint1_radial_2_62)"/>
<path d="M40.5028 8.85938C31.9099 8.85938 30.8313 8.89703 27.4565 9.05048C24.088 9.20489 21.7887 9.73804 19.777 10.5205C17.6957 11.3286 15.9304 12.4098 14.1718 14.169C12.4117 15.9279 11.3305 17.6931 10.5199 19.7735C9.73519 21.7858 9.20141 24.0861 9.04985 27.453C8.89893 30.8281 8.85938 31.907 8.85938 40.5003C8.85938 49.0936 8.89734 50.1687 9.05048 53.5435C9.20552 56.912 9.73867 59.2113 10.5205 61.223C11.3292 63.3043 12.4104 65.0696 14.1696 66.8282C15.9279 68.5883 17.6931 69.672 19.7729 70.4801C21.7862 71.2626 24.0858 71.7957 27.4536 71.9501C30.8287 72.1036 31.9064 72.1413 40.4991 72.1413C49.093 72.1413 50.1681 72.1036 53.5429 71.9501C56.9114 71.7957 59.2132 71.2626 61.2265 70.4801C63.3069 69.672 65.0696 68.5883 66.8275 66.8282C68.5877 65.0696 69.6685 63.3043 70.4795 61.224C71.2572 59.2113 71.7913 56.9114 71.9495 53.5442C72.1011 50.1694 72.1406 49.0936 72.1406 40.5003C72.1406 31.907 72.1011 30.8287 71.9495 27.4536C71.7913 24.0852 71.2572 21.7862 70.4795 19.7744C69.6685 17.6931 68.5877 15.9279 66.8275 14.169C65.0677 12.4091 63.3075 11.328 61.2246 10.5208C59.2075 9.73803 56.9069 9.20457 53.5385 9.05048C50.1634 8.89703 49.0888 8.85938 40.493 8.85938H40.5028ZM37.6644 14.5613C38.507 14.5601 39.447 14.5613 40.5028 14.5613C48.9512 14.5613 49.9523 14.5917 53.2885 14.7433C56.3735 14.8844 58.0479 15.3998 59.1632 15.833C60.6399 16.4063 61.6926 17.0919 62.7994 18.1997C63.9068 19.3071 64.5921 20.3617 65.167 21.8384C65.6002 22.9521 66.1163 24.6265 66.2567 27.7115C66.4083 31.047 66.4412 32.0488 66.4412 40.493C66.4412 48.9373 66.4083 49.9393 66.2567 53.2746C66.1156 56.3595 65.6002 58.034 65.167 59.148C64.5937 60.6247 63.9068 61.6761 62.7994 62.7829C61.6919 63.8903 60.6405 64.5757 59.1632 65.1493C58.0492 65.5844 56.3735 66.0985 53.2885 66.2397C49.953 66.3912 48.9512 66.4241 40.5028 66.4241C32.0542 66.4241 31.0527 66.3912 27.7175 66.2397C24.6325 66.0973 22.9581 65.5818 21.8418 65.1487C20.3655 64.575 19.3106 63.8897 18.2032 62.7823C17.0957 61.6749 16.4104 60.6228 15.8355 59.1455C15.4023 58.0314 14.8863 56.357 14.7458 53.2721C14.5942 49.9365 14.5639 48.9348 14.5639 40.4851C14.5639 32.0355 14.5942 31.0391 14.7458 27.7036C14.8869 24.6186 15.4023 22.9442 15.8355 21.8289C16.4091 20.3522 17.0957 19.2976 18.2035 18.1902C19.3112 17.0828 20.3655 16.3971 21.8422 15.8225C22.9575 15.3875 24.6325 14.8733 27.7175 14.7316C30.6364 14.5996 31.7675 14.5601 37.6644 14.5534V14.5613ZM57.3926 19.8149C55.2964 19.8149 53.5957 21.514 53.5957 23.6106C53.5957 25.7067 55.2964 27.4074 57.3926 27.4074C59.4888 27.4074 61.1895 25.7067 61.1895 23.6106C61.1895 21.5144 59.4888 19.8137 57.3926 19.8137V19.8149ZM40.5028 24.2513C31.5296 24.2513 24.2541 31.5267 24.2541 40.5003C24.2541 49.4739 31.5296 56.7459 40.5028 56.7459C49.4764 56.7459 56.7494 49.4739 56.7494 40.5003C56.7494 31.527 49.4758 24.2513 40.5022 24.2513H40.5028ZM40.5028 29.9532C46.3276 29.9532 51.0499 34.675 51.0499 40.5003C51.0499 46.325 46.3276 51.0474 40.5028 51.0474C34.6781 51.0474 29.9561 46.325 29.9561 40.5003C29.9561 34.675 34.6778 29.9532 40.5028 29.9532Z" fill="white"/>
<defs>
<radialGradient id="paint0_radial_2_62" cx="0" cy="0" r="1" gradientUnits="userSpaceOnUse" gradientTransform="translate(21.5156 87.2386) rotate(-90) scale(80.277 74.664)">
<stop stop-color="#FFDD55"/>
<stop offset="0.1" stop-color="#FFDD55"/>
<stop offset="0.5" stop-color="#FF543E"/>
<stop offset="1" stop-color="#C837AB"/>
</radialGradient>
<radialGradient id="paint1_radial_2_62" cx="0" cy="0" r="1" gradientUnits="userSpaceOnUse" gradientTransform="translate(-13.5678 5.83504) rotate(78.68) scale(35.8843 147.916)">
<stop stop-color="#3771C8"/>
<stop offset="0.128" stop-color="#3771C8"/>
<stop offset="1" stop-color="#6600FF" stop-opacity="0"/>
</radialGradient>
</defs>
</svg>
