<svg width="1331" height="860" viewBox="0 0 1331 860" fill="none" xmlns="http://www.w3.org/2000/svg">
<rect width="1331" height="860" fill="white"/>
<g clip-path="url(#clip0_0_1)">
<path d="M1300.25 704H1291.75C1289.68 704 1288 705.679 1288 707.75V716.25C1288 718.321 1289.68 720 1291.75 720H1300.25C1302.32 720 1304 718.321 1304 716.25V707.75C1304 705.679 1302.32 704 1300.25 704Z" fill="#0277BD"/>
<path d="M1291.36 710.416L1291.54 712.412H1296.01V710.416H1291.36ZM1296.01 706.375H1291L1291.18 708.371H1296.01V706.375ZM1296.01 717.678V715.601L1296 715.603L1293.77 715.002L1293.63 713.41H1291.63L1291.91 716.545L1296 717.68L1296.01 717.678Z" fill="#EBEBEB"/>
<path d="M1298.46 712.412L1298.23 715.001L1296 715.602V717.679L1300.09 716.545L1300.12 716.208L1300.59 710.952L1300.64 710.416L1301 706.375H1296V708.371H1298.81L1298.63 710.416H1296V712.412H1298.46Z" fill="white"/>
</g>
<g clip-path="url(#clip1_0_1)">
<path d="M1178.25 645H1169.75C1167.68 645 1166 646.679 1166 648.75V657.25C1166 659.321 1167.68 661 1169.75 661H1178.25C1180.32 661 1182 659.321 1182 657.25V648.75C1182 646.679 1180.32 645 1178.25 645Z" fill="#F03C2E"/>
<mask id="mask0_0_1" style="mask-type:luminance" maskUnits="userSpaceOnUse" x="1167" y="646" width="14" height="14">
<path d="M1167.75 646.75H1180.25V659.25H1167.75V646.75Z" fill="white"/>
</mask>
<g mask="url(#mask0_0_1)">
<path d="M1180.01 652.443L1174.56 646.986C1174.44 646.873 1174.3 646.797 1174.14 646.766C1173.99 646.734 1173.83 646.75 1173.68 646.811C1173.58 646.852 1173.49 646.911 1173.42 646.986L1172.29 648.119L1173.72 649.556C1174.06 649.439 1174.44 649.519 1174.71 649.786C1174.83 649.913 1174.92 650.073 1174.96 650.248C1175 650.423 1174.99 650.605 1174.93 650.775L1176.32 652.161C1176.65 652.045 1177.04 652.12 1177.31 652.388C1177.44 652.522 1177.53 652.693 1177.57 652.878C1177.61 653.064 1177.59 653.257 1177.52 653.432C1177.42 653.667 1177.23 653.853 1177 653.95C1176.76 654.048 1176.5 654.048 1176.26 653.95C1176.15 653.902 1176.04 653.832 1175.95 653.743C1175.67 653.461 1175.6 653.047 1175.74 652.701L1174.45 651.409V654.809C1174.55 654.855 1174.63 654.917 1174.71 654.99C1174.89 655.17 1174.99 655.414 1174.99 655.668C1174.99 655.922 1174.89 656.165 1174.71 656.345C1174.53 656.525 1174.28 656.626 1174.03 656.626C1173.78 656.626 1173.53 656.525 1173.35 656.345C1173.22 656.211 1173.13 656.04 1173.09 655.854C1173.05 655.669 1173.07 655.476 1173.14 655.301C1173.19 655.185 1173.26 655.079 1173.35 654.99C1173.44 654.898 1173.55 654.828 1173.67 654.781V651.349C1173.55 651.301 1173.44 651.23 1173.35 651.14C1173.22 651.006 1173.13 650.835 1173.09 650.648C1173.05 650.461 1173.07 650.268 1173.15 650.093L1171.73 648.676L1167.99 652.414C1167.87 652.527 1167.8 652.67 1167.77 652.826C1167.73 652.983 1167.75 653.144 1167.81 653.292C1167.85 653.389 1167.91 653.478 1167.99 653.553L1173.44 659.01C1173.52 659.085 1173.61 659.144 1173.7 659.184C1173.9 659.266 1174.12 659.266 1174.32 659.184C1174.42 659.144 1174.51 659.085 1174.58 659.01L1180.01 653.586C1180.09 653.511 1180.15 653.423 1180.19 653.325C1180.23 653.227 1180.25 653.122 1180.25 653.017C1180.25 652.911 1180.23 652.806 1180.19 652.709C1180.15 652.611 1180.09 652.522 1180.01 652.447" fill="white"/>
</g>
</g>
<g clip-path="url(#clip2_0_1)">
<path d="M1306.25 806H1297.75C1295.68 806 1294 807.679 1294 809.75V818.25C1294 820.321 1295.68 822 1297.75 822H1306.25C1308.32 822 1310 820.321 1310 818.25V809.75C1310 807.679 1308.32 806 1306.25 806Z" fill="#242938"/>
<path d="M1302 807.875C1298.55 807.875 1295.75 810.673 1295.75 814.125C1295.75 816.887 1297.54 819.229 1300.02 820.056C1300.34 820.114 1300.45 819.92 1300.45 819.755C1300.45 819.606 1300.45 819.114 1300.44 818.591C1298.7 818.969 1298.34 817.854 1298.34 817.854C1298.05 817.132 1297.64 816.939 1297.64 816.939C1297.08 816.552 1297.69 816.56 1297.69 816.56C1298.31 816.604 1298.64 817.204 1298.64 817.204C1299.2 818.159 1300.11 817.883 1300.46 817.723C1300.52 817.319 1300.68 817.043 1300.86 816.887C1299.47 816.729 1298.01 816.193 1298.01 813.799C1298.01 813.116 1298.26 812.559 1298.66 812.121C1298.59 811.964 1298.38 811.328 1298.72 810.467C1298.72 810.467 1299.24 810.299 1300.44 811.108C1300.93 810.969 1301.47 810.9 1302 810.897C1302.53 810.9 1303.07 810.969 1303.57 811.108C1304.76 810.299 1305.28 810.467 1305.28 810.467C1305.62 811.328 1305.41 811.964 1305.34 812.121C1305.74 812.559 1305.99 813.116 1305.99 813.799C1305.99 816.199 1304.53 816.728 1303.13 816.882C1303.36 817.076 1303.56 817.457 1303.56 818.04C1303.56 818.876 1303.55 819.549 1303.55 819.755C1303.55 819.921 1303.66 820.116 1303.98 820.055C1306.46 819.227 1308.25 816.886 1308.25 814.125C1308.25 810.673 1305.45 807.875 1302 807.875ZM1298.09 816.778C1298.08 816.809 1298.03 816.819 1297.98 816.797C1297.94 816.777 1297.91 816.735 1297.93 816.703C1297.94 816.672 1297.99 816.663 1298.04 816.684C1298.08 816.704 1298.11 816.747 1298.09 816.778ZM1298.4 817.053C1298.37 817.08 1298.31 817.067 1298.27 817.024C1298.23 816.98 1298.22 816.922 1298.25 816.894C1298.28 816.866 1298.34 816.879 1298.38 816.923C1298.42 816.967 1298.43 817.025 1298.4 817.053ZM1298.61 817.404C1298.57 817.43 1298.51 817.405 1298.47 817.35C1298.43 817.294 1298.43 817.227 1298.47 817.201C1298.51 817.174 1298.57 817.198 1298.61 817.253C1298.65 817.31 1298.65 817.376 1298.61 817.404ZM1298.97 817.81C1298.93 817.848 1298.86 817.838 1298.81 817.786C1298.75 817.736 1298.74 817.664 1298.77 817.627C1298.8 817.589 1298.88 817.599 1298.93 817.65C1298.99 817.701 1299 817.773 1298.97 817.81ZM1299.43 817.947C1299.41 817.996 1299.34 818.019 1299.27 817.998C1299.2 817.976 1299.15 817.919 1299.17 817.87C1299.18 817.82 1299.25 817.797 1299.32 817.819C1299.4 817.841 1299.44 817.898 1299.43 817.947ZM1299.95 818.006C1299.95 818.057 1299.89 818.1 1299.82 818.101C1299.74 818.102 1299.68 818.061 1299.68 818.01C1299.68 817.958 1299.74 817.916 1299.82 817.914C1299.89 817.913 1299.95 817.954 1299.95 818.006ZM1300.47 817.986C1300.48 818.036 1300.42 818.088 1300.35 818.101C1300.28 818.115 1300.21 818.084 1300.2 818.034C1300.19 817.982 1300.25 817.931 1300.32 817.917C1300.39 817.904 1300.46 817.935 1300.47 817.986Z" fill="white"/>
</g>
<g clip-path="url(#clip3_0_1)">
<path d="M1170.25 790H1161.75C1159.68 790 1158 791.679 1158 793.75V802.25C1158 804.321 1159.68 806 1161.75 806H1170.25C1172.32 806 1174 804.321 1174 802.25V793.75C1174 791.679 1172.32 790 1170.25 790Z" fill="#F0DB4F"/>
<path d="M1162.21 803.371L1163.43 802.63C1163.67 803.049 1163.88 803.403 1164.4 803.403C1164.89 803.403 1165.2 803.21 1165.2 802.458V797.346H1166.71V802.479C1166.71 804.037 1165.79 804.745 1164.46 804.745C1163.26 804.745 1162.56 804.122 1162.21 803.371M1167.52 803.21L1168.75 802.501C1169.07 803.027 1169.49 803.414 1170.23 803.414C1170.85 803.414 1171.25 803.102 1171.25 802.673C1171.25 802.157 1170.84 801.975 1170.16 801.674L1169.78 801.513C1168.69 801.051 1167.97 800.471 1167.97 799.247C1167.97 798.119 1168.83 797.26 1170.18 797.26C1171.13 797.26 1171.82 797.593 1172.31 798.463L1171.14 799.214C1170.89 798.753 1170.61 798.57 1170.18 798.57C1169.74 798.57 1169.46 798.849 1169.46 799.214C1169.46 799.665 1169.74 799.848 1170.38 800.127L1170.76 800.288C1172.03 800.836 1172.75 801.395 1172.75 802.651C1172.75 804.005 1171.69 804.746 1170.26 804.746C1168.87 804.746 1167.96 804.08 1167.52 803.21Z" fill="#323330"/>
</g>
<g clip-path="url(#clip4_0_1)">
<path d="M1284.25 752H1275.75C1273.68 752 1272 753.679 1272 755.75V764.25C1272 766.321 1273.68 768 1275.75 768H1284.25C1286.32 768 1288 766.321 1288 764.25V755.75C1288 753.679 1286.32 752 1284.25 752Z" fill="#F4F2ED"/>
<path fill-rule="evenodd" clip-rule="evenodd" d="M1285.49 756.895C1285.49 756.91 1285.5 756.925 1285.5 756.941V759.391C1285.5 759.423 1285.49 759.454 1285.47 759.481C1285.46 759.508 1285.43 759.53 1285.41 759.546L1283.38 760.73V763.077C1283.38 763.108 1283.37 763.139 1283.36 763.166C1283.34 763.193 1283.32 763.216 1283.29 763.232L1279.06 765.703C1279.05 765.708 1279.04 765.712 1279.03 765.716C1279.02 765.717 1279.02 765.719 1279.02 765.72C1278.99 765.728 1278.96 765.728 1278.93 765.72C1278.92 765.719 1278.92 765.716 1278.91 765.715C1278.9 765.711 1278.89 765.708 1278.88 765.703L1274.65 763.232C1274.62 763.216 1274.6 763.193 1274.59 763.166C1274.57 763.139 1274.56 763.108 1274.56 763.077V755.727C1274.56 755.711 1274.56 755.695 1274.57 755.68C1274.57 755.675 1274.57 755.67 1274.57 755.665C1274.58 755.656 1274.58 755.646 1274.59 755.637C1274.59 755.631 1274.59 755.627 1274.6 755.621C1274.6 755.614 1274.61 755.607 1274.61 755.601C1274.62 755.595 1274.63 755.592 1274.63 755.587C1274.64 755.582 1274.64 755.576 1274.65 755.572H1274.65L1276.77 754.336C1276.79 754.321 1276.82 754.313 1276.85 754.313C1276.89 754.313 1276.92 754.321 1276.94 754.336L1279.06 755.572H1279.06C1279.07 755.576 1279.07 755.582 1279.08 755.587C1279.08 755.591 1279.09 755.595 1279.1 755.6C1279.1 755.607 1279.11 755.614 1279.11 755.621C1279.12 755.627 1279.12 755.631 1279.12 755.637C1279.13 755.646 1279.13 755.656 1279.14 755.665C1279.14 755.67 1279.14 755.675 1279.14 755.68C1279.15 755.695 1279.15 755.711 1279.15 755.727V760.317L1280.91 759.288V756.941C1280.91 756.925 1280.91 756.91 1280.92 756.895C1280.92 756.889 1280.92 756.885 1280.92 756.879C1280.93 756.87 1280.93 756.86 1280.93 756.852C1280.94 756.846 1280.94 756.841 1280.95 756.836C1280.95 756.829 1280.96 756.821 1280.96 756.815C1280.97 756.81 1280.97 756.806 1280.98 756.802C1280.99 756.796 1280.99 756.791 1281 756.786H1281L1283.12 755.551C1283.14 755.535 1283.17 755.527 1283.2 755.527C1283.23 755.527 1283.27 755.535 1283.29 755.551L1285.41 756.786C1285.42 756.791 1285.42 756.796 1285.43 756.801C1285.43 756.806 1285.44 756.81 1285.44 756.815C1285.45 756.821 1285.46 756.829 1285.46 756.836C1285.46 756.841 1285.47 756.846 1285.47 756.852C1285.48 756.86 1285.48 756.87 1285.48 756.879C1285.49 756.885 1285.49 756.889 1285.49 756.895ZM1285.14 759.288V757.251L1284.4 757.683L1283.38 758.28V760.317L1285.14 759.288H1285.14ZM1283.03 762.973V760.935L1282.02 761.517L1279.15 763.181V765.238L1283.03 762.973ZM1274.92 756.036V762.973L1278.79 765.238V763.181L1276.77 762.018L1276.77 762.017L1276.77 762.017C1276.76 762.013 1276.75 762.007 1276.75 762.002C1276.74 761.998 1276.74 761.994 1276.73 761.989L1276.73 761.988C1276.72 761.983 1276.72 761.976 1276.72 761.97C1276.71 761.964 1276.71 761.958 1276.7 761.952L1276.7 761.952C1276.7 761.945 1276.7 761.937 1276.69 761.929C1276.69 761.923 1276.69 761.916 1276.68 761.909V761.909C1276.68 761.9 1276.68 761.891 1276.68 761.883C1276.68 761.876 1276.68 761.869 1276.68 761.863V757.066L1275.66 756.468L1274.92 756.036V756.036ZM1276.86 754.698L1275.09 755.727L1276.85 756.756L1278.62 755.727L1276.85 754.698L1276.86 754.698ZM1277.77 761.12L1278.8 760.523V756.036L1278.05 756.468L1277.03 757.066V761.553L1277.77 761.12ZM1283.2 755.912L1281.44 756.941L1283.2 757.97L1284.97 756.941L1283.2 755.912ZM1283.03 758.28L1282 757.683L1281.26 757.251V759.288L1282.29 759.885L1283.03 760.317V758.28ZM1278.97 762.871L1281.56 761.374L1282.85 760.626L1281.09 759.598L1279.06 760.782L1277.21 761.861L1278.97 762.871Z" fill="#FF2D20"/>
</g>
<g clip-path="url(#clip5_0_1)">
<path d="M1108.25 671H1099.75C1097.68 671 1096 672.679 1096 674.75V683.25C1096 685.321 1097.68 687 1099.75 687H1108.25C1110.32 687 1112 685.321 1112 683.25V674.75C1112 672.679 1110.32 671 1108.25 671Z" fill="#0A66C2"/>
<path d="M1107.54 684.605H1109.37C1109.44 684.605 1109.5 684.579 1109.55 684.532C1109.6 684.485 1109.62 684.422 1109.62 684.355L1109.62 680.49C1109.62 678.47 1109.19 676.917 1106.83 676.917C1105.93 676.884 1105.09 677.346 1104.63 678.119C1104.63 678.123 1104.62 678.126 1104.62 678.127C1104.61 678.129 1104.61 678.129 1104.61 678.128C1104.6 678.127 1104.6 678.124 1104.6 678.121C1104.59 678.118 1104.59 678.113 1104.59 678.109V677.354C1104.59 677.287 1104.56 677.224 1104.52 677.177C1104.47 677.13 1104.41 677.104 1104.34 677.104H1102.61C1102.54 677.104 1102.48 677.13 1102.43 677.177C1102.38 677.224 1102.36 677.287 1102.36 677.354V684.355C1102.36 684.421 1102.38 684.485 1102.43 684.532C1102.48 684.579 1102.54 684.605 1102.61 684.605H1104.43C1104.5 684.605 1104.56 684.579 1104.61 684.532C1104.66 684.485 1104.68 684.421 1104.68 684.355V680.894C1104.68 679.916 1104.87 678.968 1106.08 678.968C1107.28 678.968 1107.29 680.088 1107.29 680.958V684.355C1107.29 684.422 1107.32 684.485 1107.37 684.532C1107.41 684.579 1107.48 684.605 1107.54 684.605ZM1098.38 674.727C1098.38 675.468 1098.99 676.078 1099.73 676.078C1100.47 676.078 1101.08 675.468 1101.08 674.726C1101.08 673.985 1100.47 673.375 1099.73 673.375C1098.99 673.375 1098.38 673.985 1098.38 674.727ZM1098.81 684.605H1100.64C1100.71 684.605 1100.77 684.579 1100.82 684.532C1100.87 684.485 1100.89 684.422 1100.89 684.355V677.354C1100.89 677.287 1100.87 677.224 1100.82 677.177C1100.77 677.13 1100.71 677.104 1100.64 677.104H1098.81C1098.74 677.104 1098.68 677.13 1098.63 677.177C1098.59 677.224 1098.56 677.287 1098.56 677.354V684.355C1098.56 684.422 1098.59 684.485 1098.63 684.532C1098.68 684.579 1098.74 684.605 1098.81 684.605Z" fill="white"/>
</g>
<g clip-path="url(#clip6_0_1)">
<path d="M1276.25 615H1267.75C1265.68 615 1264 616.679 1264 618.75V627.25C1264 629.321 1265.68 631 1267.75 631H1276.25C1278.32 631 1280 629.321 1280 627.25V618.75C1280 616.679 1278.32 615 1276.25 615Z" fill="#242938"/>
<path d="M1267.07 621.265H1268.85C1269.37 621.27 1269.75 621.42 1269.98 621.716C1270.21 622.012 1270.29 622.416 1270.21 622.928C1270.18 623.162 1270.11 623.392 1270.01 623.617C1269.91 623.843 1269.76 624.046 1269.58 624.227C1269.36 624.456 1269.13 624.602 1268.87 624.664C1268.62 624.726 1268.36 624.757 1268.09 624.757H1267.3L1267.05 626.016H1266.12L1267.07 621.265ZM1267.85 622.021L1267.45 624.008C1267.48 624.013 1267.5 624.015 1267.53 624.015H1267.62C1268.05 624.019 1268.4 623.977 1268.68 623.889C1268.96 623.796 1269.15 623.474 1269.25 622.922C1269.33 622.458 1269.25 622.191 1269.01 622.12C1268.78 622.049 1268.49 622.016 1268.13 622.021C1268.08 622.025 1268.03 622.027 1267.98 622.027H1267.84L1267.85 622.021ZM1271.26 620H1272.18L1271.92 621.265H1272.74C1273.19 621.274 1273.53 621.367 1273.75 621.544C1273.97 621.72 1274.04 622.056 1273.94 622.551L1273.5 624.757H1272.57L1273 622.65C1273.04 622.429 1273.03 622.272 1272.96 622.18C1272.89 622.087 1272.73 622.041 1272.5 622.041L1271.77 622.034L1271.22 624.757H1270.31L1271.26 620ZM1274.93 621.265H1276.7C1277.22 621.27 1277.6 621.42 1277.83 621.716C1278.07 622.012 1278.15 622.416 1278.07 622.928C1278.04 623.162 1277.97 623.392 1277.86 623.617C1277.76 623.843 1277.62 624.046 1277.44 624.227C1277.22 624.456 1276.98 624.602 1276.73 624.664C1276.48 624.726 1276.22 624.757 1275.95 624.757H1275.15L1274.9 626.016H1273.98L1274.93 621.265ZM1275.7 622.021L1275.3 624.008C1275.33 624.013 1275.36 624.015 1275.38 624.015H1275.48C1275.9 624.019 1276.25 623.977 1276.54 623.889C1276.82 623.796 1277.01 623.474 1277.11 622.922C1277.19 622.458 1277.11 622.191 1276.87 622.12C1276.63 622.049 1276.34 622.016 1275.99 622.021C1275.93 622.025 1275.88 622.027 1275.83 622.027H1275.69L1275.7 622.021Z" fill="white"/>
</g>
<g clip-path="url(#clip7_0_1)">
<path d="M1059.25 790H1050.75C1048.68 790 1047 791.679 1047 793.75V802.25C1047 804.321 1048.68 806 1050.75 806H1059.25C1061.32 806 1063 804.321 1063 802.25V793.75C1063 791.679 1061.32 790 1059.25 790Z" fill="#F4F2ED"/>
<path d="M1054.95 791.812C1051.78 791.812 1051.98 793.189 1051.98 793.189L1051.98 794.614H1055.01V795.042H1050.78C1050.78 795.042 1048.75 794.812 1048.75 798.014C1048.75 801.216 1050.52 801.102 1050.52 801.102H1051.58V799.616C1051.58 799.616 1051.52 797.844 1053.32 797.844H1056.33C1056.33 797.844 1058.01 797.871 1058.01 796.213V793.472C1058.01 793.472 1058.27 791.812 1054.95 791.812ZM1053.29 792.771C1053.36 792.771 1053.43 792.785 1053.49 792.813C1053.56 792.84 1053.62 792.88 1053.67 792.931C1053.72 792.981 1053.76 793.041 1053.79 793.107C1053.82 793.174 1053.83 793.244 1053.83 793.316C1053.83 793.388 1053.82 793.458 1053.79 793.525C1053.76 793.591 1053.72 793.651 1053.67 793.701C1053.62 793.752 1053.56 793.792 1053.49 793.819C1053.43 793.847 1053.36 793.861 1053.29 793.861C1053.21 793.861 1053.14 793.847 1053.08 793.819C1053.01 793.792 1052.95 793.752 1052.9 793.701C1052.85 793.651 1052.81 793.591 1052.78 793.525C1052.75 793.458 1052.74 793.388 1052.74 793.316C1052.74 793.244 1052.75 793.174 1052.78 793.107C1052.81 793.041 1052.85 792.981 1052.9 792.931C1052.95 792.88 1053.01 792.84 1053.08 792.813C1053.14 792.785 1053.21 792.771 1053.29 792.771Z" fill="url(#paint0_linear_0_1)"/>
<path d="M1055.05 804.247C1058.22 804.247 1058.02 802.871 1058.02 802.871L1058.02 801.446H1054.99V801.018H1059.22C1059.22 801.018 1061.25 801.248 1061.25 798.046C1061.25 794.844 1059.48 794.958 1059.48 794.958H1058.42V796.443C1058.42 796.443 1058.48 798.216 1056.68 798.216H1053.67C1053.67 798.216 1051.98 798.188 1051.98 799.847V802.588C1051.98 802.588 1051.73 804.247 1055.05 804.247ZM1056.71 803.289C1056.64 803.289 1056.57 803.275 1056.51 803.247C1056.44 803.22 1056.38 803.18 1056.33 803.129C1056.28 803.079 1056.24 803.019 1056.21 802.952C1056.18 802.886 1056.17 802.815 1056.17 802.744C1056.17 802.672 1056.18 802.602 1056.21 802.535C1056.24 802.469 1056.28 802.409 1056.33 802.359C1056.38 802.308 1056.44 802.268 1056.51 802.24C1056.57 802.213 1056.64 802.199 1056.71 802.199C1056.79 802.199 1056.86 802.213 1056.92 802.24C1056.99 802.268 1057.05 802.308 1057.1 802.359C1057.15 802.409 1057.19 802.469 1057.22 802.535C1057.25 802.602 1057.26 802.672 1057.26 802.744C1057.26 802.815 1057.25 802.886 1057.22 802.952C1057.19 803.019 1057.15 803.079 1057.1 803.129C1057.05 803.18 1056.99 803.22 1056.92 803.247C1056.86 803.275 1056.79 803.289 1056.71 803.289Z" fill="url(#paint1_linear_0_1)"/>
</g>
<path d="M1146 848L1147 859L1152 860L1157 859L1158 848H1146ZM1155.86 851.5H1149.64L1149.78 853H1155.72L1155.31 857.667L1151.99 858.5L1148.68 857.677L1148.47 855.5H1149.97L1150.07 856.5L1152 856.885L1153.92 856.5L1154.06 854.5H1148.42L1148 850H1156L1155.86 851.5Z" fill="#E65100"/>
<path d="M1096 755C1093.87 755 1092.53 756.066 1092 758.2C1092.8 757.133 1093.73 756.733 1094.8 757C1095.41 757.152 1095.84 757.593 1096.33 758.083C1097.11 758.878 1098.02 759.8 1100 759.8C1102.13 759.8 1103.47 758.733 1104 756.599C1103.2 757.666 1102.27 758.067 1101.2 757.8C1100.59 757.648 1100.16 757.207 1099.67 756.717C1098.89 755.921 1097.98 755 1096 755ZM1092 759.8C1089.87 759.8 1088.53 760.866 1088 763C1088.8 761.933 1089.73 761.533 1090.8 761.8C1091.41 761.952 1091.84 762.393 1092.33 762.882C1093.11 763.678 1094.02 764.6 1096 764.6C1098.13 764.6 1099.47 763.533 1100 761.4C1099.2 762.466 1098.27 762.866 1097.2 762.6C1096.59 762.448 1096.16 762.006 1095.67 761.517C1094.89 760.721 1093.98 759.8 1092 759.8Z" fill="#38BDF8"/>
<path d="M1105.73 591.637C1105.7 590.785 1106.37 590 1107.27 590H1116.46C1117.36 590 1118.02 590.785 1117.99 591.637C1117.96 592.456 1118 593.516 1118.26 594.38C1118.53 595.247 1118.98 595.795 1119.72 595.865V596.664C1118.98 596.734 1118.53 597.282 1118.26 598.149C1118 599.013 1117.96 600.073 1117.99 600.892C1118.02 601.743 1117.36 602.529 1116.46 602.529H1107.27C1106.37 602.529 1105.7 601.743 1105.73 600.892C1105.76 600.073 1105.73 599.013 1105.46 598.149C1105.19 597.282 1104.74 596.734 1104 596.664V595.865C1104.74 595.795 1105.19 595.247 1105.46 594.38C1105.73 593.516 1105.76 592.456 1105.73 591.637Z" fill="url(#paint2_linear_0_1)"/>
<g filter="url(#filter0_d_0_1)">
<path d="M1312.74 664.664C1314.19 664.664 1315.07 663.952 1315.07 662.779C1315.07 661.893 1314.44 661.251 1313.52 661.149V661.112C1314.2 661.002 1314.73 660.369 1314.73 659.662C1314.73 658.656 1313.94 658 1312.72 658H1310V664.664H1312.74ZM1311.06 658.845H1312.47C1313.24 658.845 1313.67 659.187 1313.67 659.806C1313.67 660.466 1313.16 660.835 1312.25 660.835H1311.06V658.845ZM1311.06 663.818V661.625H1312.46C1313.46 661.625 1313.98 661.994 1313.98 662.715C1313.98 663.435 1313.48 663.818 1312.52 663.818H1311.06Z" fill="url(#paint3_linear_0_1)"/>
</g>
<g clip-path="url(#clip8_0_1)">
<path d="M1239.25 806H1230.75C1228.68 806 1227 807.679 1227 809.75V818.25C1227 820.321 1228.68 822 1230.75 822H1239.25C1241.32 822 1243 820.321 1243 818.25V809.75C1243 807.679 1241.32 806 1239.25 806Z" fill="url(#paint4_radial_0_1)"/>
<path d="M1239.25 806H1230.75C1228.68 806 1227 807.679 1227 809.75V818.25C1227 820.321 1228.68 822 1230.75 822H1239.25C1241.32 822 1243 820.321 1243 818.25V809.75C1243 807.679 1241.32 806 1239.25 806Z" fill="url(#paint5_radial_0_1)"/>
<path d="M1235 807.75C1233.3 807.75 1233.09 807.757 1232.42 807.788C1231.76 807.818 1231.3 807.924 1230.91 808.078C1230.5 808.238 1230.15 808.451 1229.8 808.799C1229.45 809.146 1229.24 809.495 1229.08 809.906C1228.92 810.303 1228.82 810.758 1228.79 811.423C1228.76 812.089 1228.75 812.303 1228.75 814C1228.75 815.698 1228.76 815.91 1228.79 816.576C1228.82 817.242 1228.92 817.696 1229.08 818.093C1229.24 818.505 1229.45 818.853 1229.8 819.201C1230.15 819.548 1230.49 819.762 1230.91 819.922C1231.3 820.077 1231.76 820.182 1232.42 820.212C1233.09 820.243 1233.3 820.25 1235 820.25C1236.7 820.25 1236.91 820.243 1237.58 820.212C1238.24 820.182 1238.7 820.077 1239.09 819.922C1239.51 819.762 1239.85 819.548 1240.2 819.201C1240.55 818.853 1240.76 818.505 1240.92 818.094C1241.08 817.696 1241.18 817.242 1241.21 816.577C1241.24 815.91 1241.25 815.698 1241.25 814C1241.25 812.303 1241.24 812.09 1241.21 811.423C1241.18 810.758 1241.08 810.303 1240.92 809.906C1240.76 809.495 1240.55 809.146 1240.2 808.799C1239.85 808.451 1239.51 808.238 1239.09 808.078C1238.7 807.924 1238.24 807.818 1237.58 807.788C1236.91 807.757 1236.7 807.75 1235 807.75H1235ZM1234.44 808.876C1234.61 808.876 1234.79 808.876 1235 808.876C1236.67 808.876 1236.87 808.882 1237.53 808.912C1238.14 808.94 1238.47 809.042 1238.69 809.128C1238.98 809.241 1239.19 809.376 1239.4 809.595C1239.62 809.814 1239.76 810.022 1239.87 810.314C1239.96 810.534 1240.06 810.865 1240.09 811.474C1240.12 812.133 1240.12 812.331 1240.12 813.999C1240.12 815.667 1240.12 815.865 1240.09 816.523C1240.06 817.133 1239.96 817.464 1239.87 817.684C1239.76 817.975 1239.62 818.183 1239.4 818.402C1239.19 818.62 1238.98 818.756 1238.69 818.869C1238.47 818.955 1238.14 819.057 1237.53 819.084C1236.87 819.114 1236.67 819.121 1235 819.121C1233.33 819.121 1233.13 819.114 1232.48 819.084C1231.87 819.056 1231.53 818.954 1231.31 818.869C1231.02 818.756 1230.81 818.62 1230.6 818.401C1230.38 818.183 1230.24 817.975 1230.13 817.683C1230.04 817.463 1229.94 817.132 1229.91 816.523C1229.88 815.864 1229.88 815.666 1229.88 813.997C1229.88 812.328 1229.88 812.131 1229.91 811.472C1229.94 810.863 1230.04 810.532 1230.13 810.312C1230.24 810.02 1230.38 809.812 1230.6 809.593C1230.81 809.374 1231.02 809.239 1231.31 809.125C1231.53 809.039 1231.87 808.938 1232.48 808.91C1233.05 808.884 1233.28 808.876 1234.44 808.875V808.876ZM1238.34 809.914C1237.92 809.914 1237.59 810.25 1237.59 810.664C1237.59 811.078 1237.92 811.414 1238.34 811.414C1238.75 811.414 1239.09 811.078 1239.09 810.664C1239.09 810.25 1238.75 809.914 1238.34 809.914V809.914ZM1235 810.79C1233.23 810.79 1231.79 812.228 1231.79 814C1231.79 815.773 1233.23 817.209 1235 817.209C1236.77 817.209 1238.21 815.773 1238.21 814C1238.21 812.228 1236.77 810.79 1235 810.79H1235ZM1235 811.917C1236.15 811.917 1237.08 812.849 1237.08 814C1237.08 815.151 1236.15 816.083 1235 816.083C1233.85 816.083 1232.92 815.151 1232.92 814C1232.92 812.849 1233.85 811.917 1235 811.917Z" fill="white"/>
</g>
<path d="M0 0V72H72V0H0ZM39.1834 56.1523C39.1834 63.1594 35.0691 66.3583 29.0751 66.3583C23.6597 66.3583 20.5251 63.5631 18.918 60.1714L24.4311 56.844C25.4931 58.7237 26.4574 60.3154 28.7871 60.3154C31.0037 60.3154 32.418 59.4463 32.418 56.0571V33.0583H39.1834V56.1523ZM55.188 66.3583C48.9034 66.3583 44.838 63.3703 42.8606 59.4463L48.3737 56.2654C49.8214 58.6286 51.7166 60.3797 55.044 60.3797C57.8391 60.3797 59.6417 58.9809 59.6417 57.0369C59.6417 54.7226 57.8083 53.9023 54.7071 52.5369L53.0203 51.8143C48.1346 49.7417 44.9049 47.1214 44.9049 41.6083C44.9049 36.5297 48.7774 32.6726 54.8049 32.6726C59.112 32.6726 62.1977 34.1666 64.4169 38.088L59.1454 41.4643C57.9883 39.3917 56.7334 38.5714 54.7894 38.5714C52.8146 38.5714 51.5597 39.8263 51.5597 41.4643C51.5597 43.4906 52.8146 44.3083 55.7229 45.5786L57.4097 46.3011C63.1646 48.7594 66.3943 51.2846 66.3943 56.9391C66.3943 63.0154 61.6037 66.3557 55.1906 66.3557L55.188 66.3583Z" fill="#FFCD29"/>
<defs>
<filter id="filter0_d_0_1" x="1309.51" y="657.632" width="6.04938" height="7.64617" filterUnits="userSpaceOnUse" color-interpolation-filters="sRGB">
<feFlood flood-opacity="0" result="BackgroundImageFix"/>
<feColorMatrix in="SourceAlpha" type="matrix" values="0 0 0 0 0 0 0 0 0 0 0 0 0 0 0 0 0 0 127 0" result="hardAlpha"/>
<feOffset dy="0.12283"/>
<feGaussianBlur stdDeviation="0.24566"/>
<feColorMatrix type="matrix" values="0 0 0 0 0 0 0 0 0 0 0 0 0 0 0 0 0 0 0.15 0"/>
<feBlend mode="normal" in2="BackgroundImageFix" result="effect1_dropShadow_0_1"/>
<feBlend mode="normal" in="SourceGraphic" in2="effect1_dropShadow_0_1" result="shape"/>
</filter>
<linearGradient id="paint0_linear_0_1" x1="1049.95" y1="792.931" x2="1056.15" y2="799.064" gradientUnits="userSpaceOnUse">
<stop stop-color="#387EB8"/>
<stop offset="1" stop-color="#366994"/>
</linearGradient>
<linearGradient id="paint1_linear_0_1" x1="1053.75" y1="796.869" x2="1060.41" y2="803.158" gradientUnits="userSpaceOnUse">
<stop stop-color="#FFE052"/>
<stop offset="1" stop-color="#FFC331"/>
</linearGradient>
<linearGradient id="paint2_linear_0_1" x1="1106.34" y1="590.332" x2="1120.07" y2="601.237" gradientUnits="userSpaceOnUse">
<stop stop-color="#9013FE"/>
<stop offset="1" stop-color="#6610F2"/>
</linearGradient>
<linearGradient id="paint3_linear_0_1" x1="1310.48" y1="658.439" x2="1313.55" y2="663.632" gradientUnits="userSpaceOnUse">
<stop stop-color="white"/>
<stop offset="1" stop-color="#F1E5FC"/>
</linearGradient>
<radialGradient id="paint4_radial_0_1" cx="0" cy="0" r="1" gradientUnits="userSpaceOnUse" gradientTransform="translate(1231.25 823.232) rotate(-90) scale(15.8572 14.7484)">
<stop stop-color="#FFDD55"/>
<stop offset="0.1" stop-color="#FFDD55"/>
<stop offset="0.5" stop-color="#FF543E"/>
<stop offset="1" stop-color="#C837AB"/>
</radialGradient>
<radialGradient id="paint5_radial_0_1" cx="0" cy="0" r="1" gradientUnits="userSpaceOnUse" gradientTransform="translate(1224.32 807.153) rotate(78.68) scale(7.08825 29.218)">
<stop stop-color="#3771C8"/>
<stop offset="0.128" stop-color="#3771C8"/>
<stop offset="1" stop-color="#6600FF" stop-opacity="0"/>
</radialGradient>
<clipPath id="clip0_0_1">
<rect width="16" height="16" fill="white" transform="translate(1288 704)"/>
</clipPath>
<clipPath id="clip1_0_1">
<rect width="16" height="16" fill="white" transform="translate(1166 645)"/>
</clipPath>
<clipPath id="clip2_0_1">
<rect width="16" height="16" fill="white" transform="translate(1294 806)"/>
</clipPath>
<clipPath id="clip3_0_1">
<rect width="16" height="16" fill="white" transform="translate(1158 790)"/>
</clipPath>
<clipPath id="clip4_0_1">
<rect width="16" height="16" fill="white" transform="translate(1272 752)"/>
</clipPath>
<clipPath id="clip5_0_1">
<rect width="16" height="16" fill="white" transform="translate(1096 671)"/>
</clipPath>
<clipPath id="clip6_0_1">
<rect width="16" height="16" fill="white" transform="translate(1264 615)"/>
</clipPath>
<clipPath id="clip7_0_1">
<rect width="16" height="16" fill="white" transform="translate(1047 790)"/>
</clipPath>
<clipPath id="clip8_0_1">
<rect width="16" height="16" fill="white" transform="translate(1227 806)"/>
</clipPath>
</defs>
</svg>
