<svg width="72" height="74" viewBox="0 0 72 74" fill="none" xmlns="http://www.w3.org/2000/svg">
<path d="M71.9595 16.7116C71.9862 16.81 72 16.9115 72 17.0135V32.8697C72 33.284 71.7778 33.6666 71.417 33.8726L58.0641 41.5352V56.7221C58.064 56.9252 58.0104 57.1248 57.9086 57.3009C57.8068 57.4769 57.6605 57.6233 57.4841 57.7253L29.61 73.7174C29.5462 73.7533 29.4767 73.7762 29.4069 73.8012C29.3808 73.8096 29.3563 73.8256 29.3287 73.8329C29.1339 73.884 28.9291 73.884 28.7342 73.8329C28.7021 73.8245 28.6732 73.8068 28.6428 73.7953C28.5789 73.772 28.5123 73.7519 28.4515 73.7174L0.583031 57.725C0.405978 57.6236 0.258859 57.4776 0.156501 57.3015C0.0541433 57.1254 0.000162779 56.9255 0 56.7221L0 9.15351C0 9.04924 0.014625 8.94805 0.0405 8.84994C0.0492187 8.81659 0.0694688 8.78631 0.0812813 8.75296C0.102938 8.69241 0.123469 8.63019 0.15525 8.57384C0.176906 8.53628 0.208687 8.50601 0.234844 8.47125C0.268312 8.425 0.298687 8.37735 0.337781 8.33671C0.37125 8.30363 0.414844 8.27897 0.452531 8.25009C0.494719 8.21534 0.532125 8.17778 0.579938 8.15031H0.581344L14.5162 0.154383C14.6927 0.0533104 14.8927 0.00012207 15.0962 0.00012207C15.2998 0.00012207 15.4998 0.0533104 15.6763 0.154383L29.6111 8.15031H29.6139C29.6603 8.17946 29.6997 8.21534 29.7416 8.24869C29.7793 8.27756 29.8215 8.30363 29.8547 8.33559C29.8955 8.37735 29.9244 8.42528 29.959 8.47125C29.9838 8.50601 30.0173 8.53628 30.0375 8.57384C30.0707 8.63159 30.0895 8.69241 30.1129 8.75324C30.1244 8.78631 30.1447 8.81659 30.1534 8.85134C30.1801 8.94973 30.1939 9.05148 30.1942 9.15351V38.8639L41.8058 32.2003V17.0121C41.8058 16.9112 41.8205 16.8083 41.8466 16.7116C41.8567 16.6768 41.8756 16.6466 41.8871 16.6135C41.9105 16.5527 41.9307 16.4902 41.9625 16.4341C41.9842 16.3965 42.0159 16.3663 42.041 16.3315C42.0756 16.2853 42.1045 16.2376 42.145 16.197C42.1788 16.1639 42.2207 16.1392 42.2584 16.1104C42.302 16.0756 42.3397 16.038 42.3861 16.0106H42.3875L56.3237 8.01464C56.5001 7.9133 56.7001 7.85995 56.9038 7.85995C57.1074 7.85995 57.3074 7.9133 57.4838 8.01464L71.4187 16.0106C71.4679 16.0394 71.5056 16.0756 71.5492 16.1087C71.5852 16.1378 71.6273 16.1639 71.6608 16.1956C71.7013 16.2376 71.7303 16.2853 71.7649 16.3315C71.7913 16.3663 71.8231 16.3965 71.8436 16.4341C71.8768 16.4902 71.8957 16.5527 71.9187 16.6135C71.9319 16.6466 71.9508 16.6768 71.9595 16.7116ZM69.6772 32.2006V19.0151L64.8006 21.8128L58.0638 25.6788V38.8642L69.6786 32.2006H69.6772ZM55.7423 56.053V42.8583L49.1155 46.6303L30.1927 57.3939V70.7123L55.7423 56.053ZM2.32284 11.1549V56.053L27.8696 70.7111V57.3953L14.5237 49.8675L14.5195 49.8647L14.5139 49.8619C14.4689 49.8359 14.4309 49.7983 14.389 49.7666C14.3525 49.7375 14.3106 49.7145 14.2788 49.6825L14.276 49.6783C14.2383 49.6422 14.2121 49.5973 14.1803 49.557C14.1511 49.5177 14.1165 49.4846 14.0932 49.4443L14.0918 49.4398C14.0656 49.3966 14.0496 49.3445 14.0307 49.2954C14.0119 49.252 13.9874 49.2113 13.9756 49.1654V49.164C13.9613 49.109 13.9584 49.051 13.9525 48.9947C13.9469 48.9515 13.9351 48.908 13.9351 48.8646V17.8188L7.19944 13.9512L2.32284 11.1566V11.1549ZM15.0978 2.49267L3.48722 9.15351L15.095 15.8141L26.7038 9.15183L15.095 2.49267H15.0978ZM21.1357 44.061L27.871 40.1968V11.1549L22.995 13.9529L16.2577 17.8185V46.8602L21.1357 44.061ZM56.9036 10.3529L45.2948 17.0135L56.9036 23.6743L68.5111 17.0121L56.9036 10.3529ZM55.7421 25.6788L49.0053 21.8128L44.129 19.0151V32.2006L50.8643 36.0651L55.7423 38.8642L55.7421 25.6788ZM29.0298 55.3926L46.0575 45.7042L54.5693 40.8628L42.9688 34.2064L29.6125 41.8699L17.4395 48.8545L29.0298 55.3926Z" fill="#FF2D20"/>
</svg>
