<svg width="72" height="72" viewBox="0 0 72 72" fill="none" xmlns="http://www.w3.org/2000/svg">
<g clip-path="url(#clip0_2_28)">
<path d="M55.125 0H16.875C7.55519 0 0 7.55519 0 16.875V55.125C0 64.4448 7.55519 72 16.875 72H55.125C64.4448 72 72 64.4448 72 55.125V16.875C72 7.55519 64.4448 0 55.125 0Z" fill="#0A66C2"/>
<path d="M51.9511 61.2239H60.1833C60.4816 61.2239 60.7677 61.1054 60.9787 60.8945C61.1896 60.6836 61.3082 60.3975 61.3083 60.0992L61.3125 42.7061C61.3125 33.6153 59.3536 26.6276 48.7299 26.6276C44.6915 26.4774 40.8831 28.5592 38.828 32.0355C38.8179 32.0524 38.8026 32.0655 38.7844 32.0729C38.7662 32.0803 38.7461 32.0815 38.7271 32.0764C38.7081 32.0712 38.6914 32.06 38.6794 32.0445C38.6674 32.0289 38.6608 32.0099 38.6606 31.9902V28.5919C38.6606 28.2935 38.5421 28.0074 38.3311 27.7964C38.1201 27.5854 37.834 27.4669 37.5356 27.4669H29.7233C29.425 27.4669 29.1388 27.5854 28.9278 27.7964C28.7169 28.0074 28.5983 28.2935 28.5983 28.5919V60.0975C28.5983 60.3959 28.7169 60.682 28.9278 60.893C29.1388 61.104 29.425 61.2225 29.7233 61.2225H37.955C38.2533 61.2225 38.5395 61.104 38.7505 60.893C38.9614 60.682 39.08 60.3959 39.08 60.0975V44.5238C39.08 40.1203 39.9153 35.8557 45.3746 35.8557C50.7563 35.8557 50.8261 40.8946 50.8261 44.809V60.0989C50.8261 60.3973 50.9446 60.6834 51.1556 60.8944C51.3666 61.1054 51.6527 61.2239 51.9511 61.2239ZM10.6875 16.7704C10.6875 20.1071 13.4345 22.8527 16.7715 22.8527C20.1077 22.8524 22.853 20.1052 22.853 16.769C22.8524 13.4328 20.1068 10.6875 16.7704 10.6875C13.4331 10.6875 10.6875 13.4336 10.6875 16.7704ZM12.6447 61.2239H20.8873C21.1857 61.2239 21.4718 61.1054 21.6828 60.8944C21.8938 60.6834 22.0123 60.3973 22.0123 60.0989V28.5919C22.0123 28.2935 21.8938 28.0074 21.6828 27.7964C21.4718 27.5854 21.1857 27.4669 20.8873 27.4669H12.6447C12.3464 27.4669 12.0602 27.5854 11.8492 27.7964C11.6382 28.0074 11.5197 28.2935 11.5197 28.5919V60.0989C11.5197 60.3973 11.6382 60.6834 11.8492 60.8944C12.0602 61.1054 12.3464 61.2239 12.6447 61.2239Z" fill="white"/>
</g>
<defs>
<clipPath id="clip0_2_28">
<rect width="72" height="72" fill="white"/>
</clipPath>
</defs>
</svg>
