<svg width="137" height="72" viewBox="0 0 137 72" fill="none" xmlns="http://www.w3.org/2000/svg">
<g clip-path="url(#clip0_0_1)">
<path d="M68.5 71.7867C106.332 71.7867 137 55.7167 137 35.8933C137 16.07 106.332 0 68.5 0C30.6685 0 0 16.07 0 35.8933C0 55.7167 30.6685 71.7867 68.5 71.7867Z" fill="url(#paint0_radial_0_1)"/>
<path d="M68.5 69.12C104.854 69.12 134.324 54.2439 134.324 35.8933C134.324 17.5428 104.854 2.66666 68.5 2.66666C32.1463 2.66666 2.67578 17.5428 2.67578 35.8933C2.67578 54.2439 32.1463 69.12 68.5 69.12Z" fill="#6181B6"/>
<path d="M81.8254 46.6667L85.0898 29.92C85.8391 26.1333 85.1969 23.3067 83.2703 21.5467C81.3973 19.84 78.1863 18.9867 73.477 18.9867H67.8043L69.4098 10.6667C69.4633 10.3467 69.4098 10.0267 69.1957 9.76C68.9816 9.49333 68.7141 9.38667 68.393 9.38667H60.5797C60.0445 9.38667 59.6164 9.76 59.5094 10.24L56.0309 28C55.7098 25.9733 54.9605 24.2667 53.6762 22.88C51.375 20.2667 47.7895 18.9333 42.9195 18.9333H27.8816C27.3465 18.9333 26.9184 19.3067 26.8113 19.7867L19.8008 55.84C19.7473 56.16 19.8008 56.48 20.0148 56.7467C20.2289 57.0133 20.4965 57.12 20.8176 57.12H28.6844C29.2195 57.12 29.6477 56.7467 29.7547 56.2667L31.4672 47.5733H37.3004C40.3508 47.5733 42.973 47.2533 44.9531 46.6133C47.0402 45.92 48.9133 44.8 50.5723 43.2533C51.9102 42.0267 53.034 40.64 53.8902 39.1467L52.4988 46.3467C52.4453 46.6667 52.4988 46.9867 52.7129 47.2533C52.927 47.52 53.1945 47.6267 53.5156 47.6267H61.3289C61.8641 47.6267 62.2922 47.2533 62.3992 46.7733L66.2523 27.04H71.6039C73.9051 27.04 74.5473 27.4667 74.7613 27.68C74.9219 27.84 75.243 28.48 74.8684 30.4533L71.7645 46.4C71.7109 46.72 71.7645 47.04 71.9785 47.3067C72.1926 47.5733 72.4602 47.68 72.7812 47.68H80.8086C81.2902 47.52 81.7184 47.1467 81.8254 46.6667ZM45.6488 32.8C45.1672 35.3067 44.2574 37.12 42.9195 38.1333C41.5816 39.1467 39.3875 39.68 36.4977 39.68H33.0191L35.5344 26.7733H40.0297C43.3477 26.7733 44.6855 27.4667 45.2207 28.0533C45.9164 28.9067 46.077 30.56 45.6488 32.8ZM115.219 22.88C112.918 20.2667 109.332 18.9333 104.463 18.9333H89.3176C88.7824 18.9333 88.3543 19.3067 88.2473 19.7867L81.2367 55.7867C81.1832 56.1067 81.2367 56.4267 81.4508 56.6933C81.6648 56.96 81.9324 57.0667 82.2535 57.0667H90.1203C90.6555 57.0667 91.0836 56.6933 91.1906 56.2133L92.9031 47.52H98.7363C101.787 47.52 104.409 47.2 106.389 46.56C108.476 45.8667 110.349 44.7467 112.008 43.2C113.4 41.92 114.577 40.48 115.433 38.9333C116.289 37.3867 116.932 35.68 117.306 33.8133C118.216 29.1733 117.52 25.5467 115.219 22.88ZM107.031 32.8C106.55 35.3067 105.64 37.12 104.302 38.1333C102.964 39.1467 100.77 39.68 97.8801 39.68H94.4016L96.9168 26.7733H101.412C104.73 26.7733 106.068 27.4667 106.603 28.0533C107.352 28.9067 107.513 30.56 107.031 32.8Z" fill="white"/>
<path d="M40.0297 25.7067C43.0266 25.7067 45.0066 26.24 46.0234 27.36C47.0402 28.48 47.2543 30.3467 46.7191 33.0133C46.184 35.7867 45.1137 37.8133 43.5617 38.9867C42.0098 40.16 39.6551 40.7467 36.4977 40.7467H31.7348L34.6781 25.7067H40.0297ZM20.8711 56H28.7379L30.6109 46.4533H37.3539C40.3508 46.4533 42.759 46.1333 44.6855 45.4933C46.6121 44.8533 48.3246 43.84 49.9301 42.3467C51.268 41.12 52.3383 39.7867 53.141 38.3467C53.9438 36.9067 54.5324 35.3067 54.8535 33.5467C55.7098 29.28 55.0676 25.9733 52.9805 23.5733C50.8934 21.1733 47.5754 20 43.0266 20H27.8816L20.8711 56ZM60.6332 10.4533H68.4465L66.5734 20H73.5305C77.9187 20 80.9156 20.7467 82.5746 22.2933C84.2336 23.84 84.7152 26.2933 84.0731 29.7067L80.8086 46.4533H72.8883L75.9922 30.5067C76.3668 28.6933 76.2063 27.4667 75.6176 26.8267C75.0289 26.1867 73.691 25.8133 71.7109 25.8133H65.4496L61.4359 46.4533H53.6227L60.6332 10.4533ZM101.412 25.7067C104.409 25.7067 106.389 26.24 107.406 27.36C108.423 28.48 108.637 30.3467 108.102 33.0133C107.566 35.7867 106.496 37.8133 104.944 38.9867C103.392 40.16 101.037 40.7467 97.8801 40.7467H93.1172L96.0605 25.7067H101.412ZM82.2535 56H90.1203L91.9934 46.4533H98.7363C101.733 46.4533 104.141 46.1333 106.068 45.4933C107.995 44.8533 109.707 43.84 111.312 42.3467C112.65 41.12 113.721 39.7867 114.523 38.3467C115.326 36.9067 115.915 35.3067 116.236 33.5467C117.092 29.28 116.45 25.9733 114.363 23.5733C112.276 21.1733 108.958 20 104.409 20H89.2641L82.2535 56Z" fill="#000004"/>
</g>
<defs>
<radialGradient id="paint0_radial_0_1" cx="0" cy="0" r="1" gradientUnits="userSpaceOnUse" gradientTransform="translate(41.1276 12.6227) scale(89.9573 89.6509)">
<stop stop-color="white"/>
<stop offset="0.5" stop-color="#4C6B97"/>
<stop offset="1" stop-color="#231F20"/>
</radialGradient>
<clipPath id="clip0_0_1">
<rect width="137" height="72" fill="white"/>
</clipPath>
</defs>
</svg>
