<svg width="72" height="72" viewBox="0 0 72 72" fill="none" xmlns="http://www.w3.org/2000/svg">
<path d="M29.58 6C27.3044 6 25.1221 6.90396 23.513 8.51302C21.904 10.1221 21 12.3044 21 14.58V19.62H33.87C35.04 19.62 36 21.33 36 22.5H14.58C12.3044 22.5 10.1221 23.404 8.51302 25.013C6.90396 26.6221 6 28.8044 6 31.08V42.423C6 44.6986 6.90396 46.8809 8.51302 48.49C10.1221 50.099 12.3044 51.003 14.58 51.003H18.12V42.963C18.1161 41.8377 18.3343 40.7226 18.7622 39.6818C19.1901 38.641 19.8193 37.695 20.6136 36.8978C21.4079 36.1007 22.3518 35.4682 23.3911 35.0367C24.4304 34.6051 25.5447 34.383 26.67 34.383H42.42C47.16 34.383 51 30.57 51 25.83V14.58C51 12.3044 50.096 10.1221 48.487 8.51302C46.8779 6.90396 44.6956 6 42.42 6H29.58ZM27.42 10.83C28.62 10.83 29.58 11.19 29.58 12.96C29.58 14.73 28.62 15.633 27.42 15.633C26.25 15.633 25.29 14.733 25.29 12.963C25.29 11.193 26.25 10.83 27.42 10.83Z" fill="#0288D1"/>
<path d="M53.877 21V29.04C53.8806 30.1651 53.662 31.2798 53.2339 32.3202C52.8059 33.3607 52.1766 34.3064 51.3823 35.1032C50.588 35.9 49.6443 36.5322 48.6052 36.9636C47.5661 37.395 46.4521 37.617 45.327 37.617H29.58C28.4547 37.6131 27.3396 37.8313 26.2988 38.2592C25.258 38.6871 24.312 39.3163 23.5148 40.1106C22.7177 40.9049 22.0852 41.8488 21.6537 42.8881C21.2221 43.9274 21 45.0417 21 46.167V57.417C21 59.6926 21.904 61.8749 23.513 63.484C25.1221 65.093 27.3044 65.997 29.58 65.997H42.42C44.695 65.997 46.8769 65.0934 48.4859 63.485C50.0949 61.8766 50.9992 59.695 51 57.42V52.38H38.127C36.957 52.38 36 50.67 36 49.5H57.42C59.6956 49.5 61.8779 48.596 63.487 46.987C65.096 45.3779 66 43.1956 66 40.92V29.58C66 27.3044 65.096 25.1221 63.487 23.513C61.8779 21.904 59.6956 21 57.42 21H53.877ZM24.96 34.539L24.948 34.551L25.062 34.539H24.96ZM44.58 56.367C45.75 56.367 46.71 57.267 46.71 59.037C46.71 59.3167 46.6549 59.5937 46.5479 59.8521C46.4408 60.1105 46.2839 60.3453 46.0861 60.5431C45.8883 60.7409 45.6535 60.8978 45.3951 61.0049C45.1367 61.1119 44.8597 61.167 44.58 61.167C43.38 61.167 42.42 60.807 42.42 59.037C42.42 57.267 43.38 56.367 44.58 56.367Z" fill="#FDD835"/>
</svg>
