<svg width="72" height="72" viewBox="0 0 72 72" fill="none" xmlns="http://www.w3.org/2000/svg">
<path d="M57.15 14.73C54.3992 11.9523 51.1231 9.74989 47.5125 8.25108C43.902 6.75227 40.0293 5.98704 36.12 5.99999C19.74 5.99999 6.39 19.35 6.39 35.73C6.39 40.98 7.77 46.08 10.35 50.58L6.15 66L21.9 61.86C26.25 64.23 31.14 65.49 36.12 65.49C52.5 65.49 65.85 52.14 65.85 35.76C65.85 27.81 62.76 20.34 57.15 14.73ZM36.12 60.45C31.68 60.45 27.33 59.25 23.52 57L22.62 56.46L13.26 58.92L15.75 49.8L15.15 48.87C12.6826 44.9312 11.3728 40.3778 11.37 35.73C11.37 22.11 22.47 11.01 36.09 11.01C42.69 11.01 48.9 13.59 53.55 18.27C55.8529 20.5616 57.6778 23.2876 58.9189 26.29C60.16 29.2923 60.7926 32.5112 60.78 35.76C60.84 49.38 49.74 60.45 36.12 60.45ZM49.68 41.97C48.93 41.61 45.27 39.81 44.61 39.54C43.92 39.3 43.44 39.18 42.93 39.9C42.42 40.65 41.01 42.33 40.59 42.81C40.17 43.32 39.72 43.38 38.97 42.99C38.22 42.63 35.82 41.82 33 39.3C30.78 37.32 29.31 34.89 28.86 34.14C28.44 33.39 28.8 33 29.19 32.61C29.52 32.28 29.94 31.74 30.3 31.32C30.66 30.9 30.81 30.57 31.05 30.09C31.29 29.58 31.17 29.16 30.99 28.8C30.81 28.44 29.31 24.78 28.71 23.28C28.11 21.84 27.48 22.02 27.03 21.99H25.59C25.08 21.99 24.3 22.17 23.61 22.92C22.95 23.67 21.03 25.47 21.03 29.13C21.03 32.79 23.7 36.33 24.06 36.81C24.42 37.32 29.31 44.82 36.75 48.03C38.52 48.81 39.9 49.26 40.98 49.59C42.75 50.16 44.37 50.07 45.66 49.89C47.1 49.68 50.07 48.09 50.67 46.35C51.3 44.61 51.3 43.14 51.09 42.81C50.88 42.48 50.43 42.33 49.68 41.97Z" fill="#14BF33"/>
</svg>
