<svg width="72" height="72" viewBox="0 0 72 72" fill="none" xmlns="http://www.w3.org/2000/svg">
<path opacity="0.987" fill-rule="evenodd" clip-rule="evenodd" d="M32.4405 4.7745C35.703 4.41 37.6335 4.41 41.139 4.7745C47.3442 5.69293 53.0965 8.56119 57.564 12.9645C54.5451 15.8181 51.5658 18.7134 48.627 21.6495C42.999 16.8795 36.717 15.7785 29.781 18.3465C24.693 20.6865 21.15 24.4785 19.152 29.7225C15.887 27.2917 12.6645 24.8044 9.486 22.2615C9.26511 22.1452 9.01282 22.1027 8.766 22.14C13.815 12.405 21.705 6.615 32.436 4.77" fill="#F44336"/>
<path opacity="0.997" fill-rule="evenodd" clip-rule="evenodd" d="M8.757 22.14C9.012 22.101 9.2535 22.1415 9.4815 22.2615C12.66 24.8044 15.8825 27.2917 19.1475 29.7225C18.6337 31.7658 18.3098 33.8521 18.18 35.955C18.291 37.989 18.6135 39.9855 19.1475 41.9445L9 50.022C4.581 40.788 4.5 31.494 8.757 22.14Z" fill="#FFC107"/>
<path opacity="0.999" fill-rule="evenodd" clip-rule="evenodd" d="M57.0825 59.805C53.9229 57.0185 50.6151 54.4047 47.1735 51.975C50.6235 49.539 52.7175 46.197 53.4555 41.949H36.549V30.2085C46.299 30.1275 56.0445 30.21 65.7855 30.456C67.6335 40.491 65.499 49.539 59.382 57.6C58.6546 58.3732 57.8842 59.1091 57.0825 59.805Z" fill="#448AFF"/>
<path opacity="0.993" fill-rule="evenodd" clip-rule="evenodd" d="M19.1475 41.949C22.8375 51.12 29.6025 55.401 39.4425 54.792C42.2047 54.4722 44.8531 53.5073 47.1735 51.975C50.6175 54.411 53.9205 57.021 57.0825 59.805C52.0724 64.307 45.6845 66.9783 38.961 67.383C37.4334 67.5051 35.8986 67.5051 34.371 67.383C22.917 66.033 14.46 60.246 9 50.022L19.1475 41.949Z" fill="#43A047"/>
</svg>
